<svg width="180" height="180" viewBox="0 0 180 180" fill="none" xmlns="http://www.w3.org/2000/svg">
<path fill-rule="evenodd" clip-rule="evenodd" d="M60.2763 24.1666C68.1783 24.7677 75.222 28.4392 80.2166 33.9906L88.9485 25.259L94.6425 30.9531L84.8171 40.7786C86.7815 44.7626 87.8851 49.2471 87.8851 53.9893C87.8851 63.3396 91.1666 71.9237 96.6403 78.6529L105.745 69.5486L111.439 75.2426L102.334 84.3473C109.064 89.8207 117.648 93.1021 126.998 93.1021C129.636 93.1021 132.194 93.4435 134.631 94.0849L141.342 82.461L148.316 86.4873L142.128 97.2053C150.971 102.401 156.908 112.013 156.908 123.012C156.908 127.39 155.967 131.549 154.277 135.296L164.816 141.381L160.79 148.355L150.003 142.127C144.517 148.723 136.248 152.921 126.998 152.921C126.229 152.921 125.462 152.913 124.697 152.895V165H116.645V152.386C104.275 151.1 92.583 147.534 81.9958 142.117L75.842 152.776L68.868 148.75L74.9824 138.16C67.0336 133.237 59.8338 127.22 53.5938 120.318L42.9921 130.92L37.2977 125.226L48.4188 114.105C41.8249 105.499 36.6124 95.7776 33.114 85.2733L21.0551 88.5045L18.9709 80.726L30.8846 77.534C29.0424 69.9879 28.0658 62.1027 28.0658 53.9893C28.0658 51.2474 28.4347 48.592 29.1256 46.0695L18 39.646L22.0263 32.6724L32.3156 38.6128C36.6004 31.4779 43.7765 26.2774 52.2237 24.632V12.0005H60.2763V24.1666ZM57.9757 32.1321C45.9044 32.1321 36.1184 41.918 36.1184 53.9893C36.1184 104.181 76.8067 144.869 126.998 144.869C139.069 144.869 148.855 135.083 148.855 123.012C148.855 110.94 139.069 101.155 126.998 101.155C100.949 101.155 79.8325 80.0379 79.8325 53.9893C79.8325 41.918 70.0469 32.1321 57.9757 32.1321ZM56.25 52.2636C54.0262 52.2636 52.2237 54.0662 52.2237 56.2899C52.2237 58.5137 54.0262 60.3162 56.25 60.3162C58.4737 60.3162 60.2763 58.5137 60.2763 56.2899C60.2763 54.0662 58.4737 52.2636 56.25 52.2636ZM44.171 56.2899C44.171 49.6187 49.5788 44.211 56.25 44.211C62.9212 44.211 68.3289 49.6187 68.3289 56.2899C68.3289 62.9611 62.9212 68.3689 56.25 68.3689C49.5788 68.3689 44.171 62.9611 44.171 56.2899ZM88.4605 112.658C88.4605 110.435 90.2631 108.632 92.4868 108.632C94.7105 108.632 96.5131 110.435 96.5131 112.658C96.5131 114.882 94.7105 116.685 92.4868 116.685C90.2631 116.685 88.4605 114.882 88.4605 112.658ZM92.4868 100.579C85.8156 100.579 80.4078 105.987 80.4078 112.658C80.4078 119.33 85.8156 124.737 92.4868 124.737C99.158 124.737 104.566 119.33 104.566 112.658C104.566 105.987 99.158 100.579 92.4868 100.579ZM72.3552 88.5004C72.3552 92.9479 68.7501 96.5531 64.3026 96.5531C59.8551 96.5531 56.25 92.9479 56.25 88.5004C56.25 84.053 59.8551 80.4478 64.3026 80.4478C68.7501 80.4478 72.3552 84.053 72.3552 88.5004ZM124.697 128.764C129.145 128.764 132.75 125.158 132.75 120.711C132.75 116.263 129.145 112.658 124.697 112.658C120.25 112.658 116.645 116.263 116.645 120.711C116.645 125.158 120.25 128.764 124.697 128.764Z" fill="#0BAB7C"/>
</svg>
