<svg width="180" height="180" viewBox="0 0 180 180" fill="none" xmlns="http://www.w3.org/2000/svg">
<path fill-rule="evenodd" clip-rule="evenodd" d="M70.5139 42.1444C69.3967 43.9548 67.8919 45.4743 66.0471 46.6708C66.8384 48.5603 67.2755 50.6349 67.2755 52.8115L67.2755 54.2095C67.2755 56.4395 66.8519 58.5604 66.0846 60.504C66.2456 60.6358 66.3983 60.7821 66.5409 60.9428L73.9778 69.323C78.2361 74.1213 80.5878 80.3142 80.5878 86.7296V111.695C80.5878 111.714 80.5876 111.734 80.5874 111.753H102.412V87.7462C102.412 81.3308 104.763 75.138 109.022 70.3396L116.459 61.9594C116.601 61.7992 116.753 61.6533 116.914 61.5218C116.146 59.5779 115.722 57.4566 115.722 55.2261L115.722 53.8281C115.722 51.6518 116.159 49.5775 116.95 47.6883C115.106 46.4919 113.601 44.9725 112.484 43.1624C110.651 40.1921 110.059 36.7602 110.342 33.3418C110.9 26.6044 114.864 19.4133 120.858 13.6129C125.385 9.23154 130.804 7.59796 136.293 8.50304C141.603 9.37854 146.558 12.5491 150.704 16.9346C159 25.7097 164.999 40.2965 164.999 56.5632C164.999 75.9823 159.104 89.4638 150.527 96.5462C141.802 103.751 130.653 103.903 122.413 97.0362C118.263 93.5778 115.397 88.246 114.984 82.4983C114.785 79.7287 115.159 76.8932 116.199 74.1629L114.935 75.5872C111.96 78.939 110.318 83.2649 110.318 87.7462V111.753H112.496C113.937 111.753 115.373 111.922 116.774 112.255C131.133 115.674 135.883 133.72 125.066 143.763L114.61 153.472C110.902 156.915 108.795 161.747 108.795 166.807V171.852V175.805H100.89V171.852V166.807C100.89 159.548 103.912 152.618 109.231 147.679L119.687 137.97C125.874 132.225 123.157 121.902 114.943 119.946C114.142 119.755 113.32 119.659 112.496 119.659H73.0255C72.2406 119.659 71.458 119.743 70.691 119.91C61.8434 121.833 58.9842 133.028 65.8263 138.958L75.9065 147.694C81.5115 152.552 84.7315 159.604 84.7315 167.021V171.852V175.805H76.8256V171.852V167.021C76.8256 161.897 74.601 157.025 70.7287 153.669L60.6484 144.933C48.8854 134.738 53.801 115.49 69.0119 112.184C70.2188 111.922 71.4481 111.779 72.6823 111.756L72.682 111.731L72.6819 111.695L72.6819 86.7296C72.6819 82.2483 71.0392 77.9224 68.0646 74.5706L66.799 73.1445C67.8393 75.8749 68.2136 78.7106 68.0146 81.4803C67.6016 87.228 64.7349 92.5598 60.5849 96.0182C52.345 102.885 41.1959 102.733 32.4707 95.5281C23.894 88.4457 17.9988 74.9642 17.9988 55.5451C17.9988 39.2784 23.9978 24.6917 32.2938 15.9165C36.4399 11.531 41.3951 8.36048 46.7051 7.48498C52.1945 6.5799 57.6134 8.21348 62.1405 12.5948C68.1338 18.3953 72.0979 25.5863 72.6562 32.3237C72.9394 35.7421 72.3468 39.174 70.5139 42.1444ZM121.76 41.3509C124.473 39.2024 127.902 37.9195 131.631 37.9195V45.6735C127.127 45.6735 123.476 49.3244 123.476 53.8281V55.2261C123.476 60.7839 128.344 65.2215 133.969 64.7329L134.64 72.4577C132.154 72.6737 129.741 72.3537 127.519 71.5956L127.522 71.5995C123.808 74.7826 122.632 78.5143 122.878 81.9311C123.133 85.4861 124.946 88.8442 127.48 90.9562C132.609 95.2304 139.508 95.382 145.488 90.4436C151.617 85.3825 157.085 74.5771 157.085 56.5632C157.085 42.0809 151.705 29.5132 144.953 22.3717C141.575 18.7989 138.09 16.8205 135.005 16.312C132.101 15.833 129.172 16.5803 126.362 19.3C121.305 24.1938 118.585 29.7033 118.229 33.9954C118.056 36.0918 118.449 37.7569 119.22 39.0063C119.748 39.8625 120.549 40.6802 121.76 41.3509ZM55.4762 70.5815L55.478 70.5794C53.2554 71.3372 50.8436 71.6571 48.3577 71.4411L49.0287 63.7163C54.6538 64.2049 59.5216 59.7673 59.5216 54.2095L59.5216 52.8115C59.5216 48.3078 55.8707 44.6569 51.367 44.6569V36.9029C55.0954 36.9029 58.5243 38.1856 61.2364 40.3336C62.4483 39.6628 63.2501 38.8447 63.7786 37.9882C64.5495 36.7389 64.9425 35.0738 64.7688 32.9773C64.4132 28.6852 61.693 23.1757 56.6364 18.2819C53.8263 15.5622 50.8975 14.815 47.9926 15.2939C44.9083 15.8025 41.4227 17.7808 38.0449 21.3536C31.2933 28.4951 25.9132 41.0628 25.9132 55.5452C25.9132 73.5591 31.3813 84.3645 37.5101 89.4255C43.4905 94.3639 50.3892 94.2123 55.5182 89.9382C58.0526 87.8262 59.8651 84.4681 60.1205 80.9131C60.366 77.4962 59.1898 73.7645 55.4762 70.5815Z" fill="#0BAB7C"/>
</svg>
