<svg width="180" height="180" viewBox="0 0 180 180" fill="none" xmlns="http://www.w3.org/2000/svg">
<path fill-rule="evenodd" clip-rule="evenodd" d="M60.6565 29.1455C58.7706 29.1455 57.2419 30.6743 57.2419 32.5601C57.2419 34.4459 58.7706 35.9746 60.6565 35.9746H69.5344V44.6347C59.2784 45.3801 49.9464 49.456 42.6149 55.7863L36.2908 49.4622L41.5592 44.1938C42.8925 42.8604 42.8925 40.6984 41.5592 39.365C40.2258 38.0315 38.0637 38.0315 36.7303 39.365L21.3647 54.7305C20.0312 56.0639 20.0312 58.226 21.3647 59.5594C22.6982 60.8928 24.8602 60.8928 26.1936 59.5594L31.4619 54.2911L37.7861 60.6152C31.4558 67.9466 27.3798 77.2786 26.6344 87.5346H17.9744V78.6567C17.9744 76.7709 16.4457 75.2422 14.5598 75.2422C12.674 75.2422 11.1453 76.7709 11.1453 78.6567V103.242C11.1453 105.127 12.674 106.656 14.5598 106.656C16.4457 106.656 17.9744 105.127 17.9744 103.242V94.3637H26.6344C27.3798 104.62 31.4558 113.952 37.7861 121.283L31.4619 127.607L26.1936 122.339C24.8602 121.006 22.6982 121.006 21.3647 122.339C20.0312 123.672 20.0312 125.834 21.3647 127.168L36.7303 142.533C38.0637 143.867 40.2258 143.867 41.5592 142.533C42.8925 141.2 42.8925 139.038 41.5592 137.704L36.2908 132.436L42.6149 126.112C49.9464 132.442 59.2784 136.518 69.5344 137.264V145.924H60.6565C58.7706 145.924 57.2419 147.452 57.2419 149.338C57.2419 151.224 58.7706 152.753 60.6565 152.753H85.2414C87.1272 152.753 88.6559 151.224 88.6559 149.338C88.6559 147.452 87.1272 145.924 85.2414 145.924H76.3635V137.264C86.6195 136.518 95.9515 132.442 103.283 126.112L109.607 132.436L104.339 137.704C103.005 139.038 103.005 141.2 104.339 142.533C105.672 143.867 107.834 143.867 109.168 142.533L124.533 127.168C125.867 125.834 125.867 123.672 124.533 122.339C123.2 121.006 121.038 121.006 119.704 122.339L114.436 127.607L108.112 121.283C114.442 113.952 118.518 104.62 119.263 94.3637H127.923V103.242C127.923 105.127 129.452 106.656 131.338 106.656C133.224 106.656 134.753 105.127 134.753 103.242V78.6567C134.753 76.7709 133.224 75.2422 131.338 75.2422C129.452 75.2422 127.923 76.7709 127.923 78.6567V87.5346H119.263C118.518 77.2786 114.442 67.9466 108.112 60.6152L114.436 54.2911L119.704 59.5594C121.038 60.8928 123.2 60.8928 124.533 59.5594C125.867 58.226 125.867 56.0639 124.533 54.7305L109.168 39.365C107.834 38.0315 105.672 38.0315 104.339 39.365C103.005 40.6984 103.005 42.8604 104.339 44.1938L109.607 49.4622L103.283 55.7863C95.9515 49.456 86.6195 45.3801 76.3635 44.6347V35.9746H85.2414C87.1272 35.9746 88.6559 34.4459 88.6559 32.5601C88.6559 30.6743 87.1272 29.1455 85.2414 29.1455H60.6565ZM72.9489 51.3402C94.8243 51.3402 112.558 69.0737 112.558 90.9492C112.558 112.825 94.8243 130.558 72.9489 130.558C51.0735 130.558 33.3399 112.825 33.3399 90.9492C33.3399 69.0737 51.0735 51.3402 72.9489 51.3402ZM94.8021 89.4126C94.8021 88.7526 95.3372 88.2175 95.9972 88.2175C96.6573 88.2175 97.1923 88.7526 97.1923 89.4126C97.1923 90.0726 96.6573 90.6077 95.9972 90.6077C95.3372 90.6077 94.8021 90.0726 94.8021 89.4126ZM95.9972 81.3884C91.5655 81.3884 87.973 84.9808 87.973 89.4126C87.973 93.8444 91.5655 97.4368 95.9972 97.4368C100.429 97.4368 104.021 93.8444 104.021 89.4126C104.021 84.9808 100.429 81.3884 95.9972 81.3884ZM74.4855 112.802C73.8254 112.802 73.2904 113.337 73.2904 113.997C73.2904 114.658 73.8254 115.193 74.4855 115.193C75.1455 115.193 75.6806 114.658 75.6806 113.997C75.6806 113.337 75.1455 112.802 74.4855 112.802ZM66.4612 113.997C66.4612 109.566 70.0537 105.973 74.4855 105.973C78.9172 105.973 82.5097 109.566 82.5097 113.997C82.5097 118.429 78.9172 122.022 74.4855 122.022C70.0537 122.022 66.4612 118.429 66.4612 113.997ZM54.8517 78.6567C54.8517 75.4508 57.4505 72.852 60.6565 72.852C63.8624 72.852 66.4612 75.4508 66.4612 78.6567C66.4612 81.8627 63.8624 84.4615 60.6565 84.4615C57.4505 84.4615 54.8517 81.8627 54.8517 78.6567ZM60.6565 66.0228C53.6788 66.0228 48.0226 71.6791 48.0226 78.6567C48.0226 85.6344 53.6788 91.2906 60.6565 91.2906C67.6341 91.2906 73.2904 85.6344 73.2904 78.6567C73.2904 71.6791 67.6341 66.0228 60.6565 66.0228Z" fill="#0BAB7C" stroke="#0BAB7C" stroke-width="2.4"/>
<ellipse cx="146.548" cy="133.403" rx="4.89212" ry="4.89212" stroke="#0BAB7C" stroke-width="9.78424"/>
<ellipse cx="154.456" cy="52.5306" rx="10.3128" ry="10.3128" stroke="#0BAB7C" stroke-width="9.78424"/>
<path d="M167.998 101.015C167.998 103.717 165.808 105.907 163.106 105.907C160.404 105.907 158.214 103.717 158.214 101.015C158.214 98.3133 160.404 96.123 163.106 96.123C165.808 96.123 167.998 98.3133 167.998 101.015Z" stroke="#0BAB7C" stroke-width="9.78424"/>
</svg>
