<svg width="180" height="180" viewBox="0 0 180 180" fill="none" xmlns="http://www.w3.org/2000/svg">
<path fill-rule="evenodd" clip-rule="evenodd" d="M100.703 67.6132C97.8731 66.4237 94.7639 65.7661 91.5011 65.7661C78.3749 65.7661 67.7339 76.4071 67.7339 89.5333C67.7339 102.66 78.3749 113.301 91.5011 113.301C104.627 113.301 115.268 102.66 115.268 89.5333C115.268 88.4844 115.201 87.4509 115.069 86.438C117.455 84.2645 118.953 81.132 118.953 77.6497C118.953 71.0864 113.633 65.7661 107.069 65.7661C104.728 65.7661 102.544 66.4435 100.703 67.6132ZM91.5011 105.378C100.252 105.378 107.346 98.284 107.346 89.5333C110.039 89.4719 112.512 88.5113 114.476 86.9439C112.444 88.5644 109.87 89.5333 107.069 89.5333C100.506 89.5333 95.1858 84.213 95.1858 77.6497C95.1858 76.4665 95.3585 75.3241 95.6805 74.2455C94.3492 73.8822 92.9477 73.6885 91.5011 73.6885C82.7504 73.6885 75.6563 80.7826 75.6563 89.5333C75.6563 98.284 82.7504 105.378 91.5011 105.378ZM111.031 77.6497C111.031 79.8375 109.257 81.6109 107.069 81.6109C104.882 81.6109 103.108 79.8375 103.108 77.6497C103.108 75.4619 104.882 73.6885 107.069 73.6885C109.257 73.6885 111.031 75.4619 111.031 77.6497Z" fill="#0BAB7C" stroke="#0BAB7C" stroke-width="1.88255"/>
<path fill-rule="evenodd" clip-rule="evenodd" d="M16.7378 77.1129C30.2372 61.831 55.8952 42.3672 90.5181 42.0051C90.753 42.0016 90.9883 42 91.224 42H91.3393H91.5001C126.62 42 152.635 61.6872 166.262 77.1129C172.579 84.264 172.579 94.8048 166.262 101.956C152.635 117.382 126.62 137.069 91.5001 137.069H91.3393H91.224C90.9883 137.069 90.753 137.067 90.5181 137.064C55.8952 136.702 30.2372 117.238 16.7378 101.956C10.4207 94.8048 10.4207 84.264 16.7378 77.1129ZM22.6753 82.3579C30.1182 73.9324 41.4139 64.2802 55.9139 57.7105C48.3155 66.1364 43.6896 77.2951 43.6896 89.5344C43.6896 101.774 48.3155 112.932 55.9139 121.358C41.4139 114.789 30.1182 105.136 22.6753 96.7109C19.0047 92.556 19.0047 86.5128 22.6753 82.3579ZM91.3365 49.9224C91.0961 49.9232 90.856 49.9244 90.6163 49.9272C69.0195 50.2516 51.612 67.8603 51.612 89.5344C51.612 111.208 69.0195 128.817 90.6163 129.142C90.856 129.144 91.0961 129.146 91.3365 129.146C113.162 129.086 130.836 111.374 130.836 89.5344C130.836 67.6947 113.162 49.983 91.3365 49.9224ZM138.758 89.5344C138.758 101.976 133.978 113.301 126.155 121.774C141.103 115.201 152.723 105.316 160.324 96.7109C163.995 92.556 163.995 86.5128 160.324 82.3579C152.723 73.753 141.103 63.8682 126.155 57.295C133.978 65.7676 138.758 77.0927 138.758 89.5344Z" fill="#0BAB7C" stroke="#0BAB7C" stroke-width="1.2"/>
</svg>
