<svg width="180" height="180" viewBox="0 0 180 180" fill="none" xmlns="http://www.w3.org/2000/svg">
<g clip-path="url(#clip0_66_495)">
<path d="M48.4207 75.9388L51.1056 78.9738L48.4207 75.9388ZM136.62 72.3924L133.935 75.4275L136.62 72.3924ZM66.1781 51.4784L68.4688 54.821C69.3971 54.1844 70.0191 53.1909 70.1856 52.0777C70.3522 50.9646 70.0479 49.8321 69.346 48.9524L66.1781 51.4784ZM56.4167 39.2367L54.2326 35.8236C53.2658 36.4422 52.6069 37.442 52.4193 38.5742C52.2313 39.7068 52.5327 40.8656 53.2483 41.7632L56.4167 39.2367ZM70.0827 30.4926L73.2506 27.9664C71.9568 26.3439 69.6467 25.961 67.8986 27.0795L70.0827 30.4926ZM79.8438 42.7345L76.6759 45.2605C77.8445 46.7266 79.8661 47.199 81.5635 46.4036L79.8438 42.7345ZM91.0376 37.4878L92.7573 41.157C94.1804 40.49 95.0897 39.0596 95.0897 37.4878H91.0376ZM91.0376 25.0518L91.0372 20.9997C88.7997 20.9997 86.9856 22.8139 86.9856 25.0518H91.0376ZM108.478 25.0516H112.53C112.53 23.9769 112.103 22.9463 111.343 22.1863C110.583 21.4264 109.552 20.9995 108.478 20.9995V25.0516ZM108.478 37.4878H104.426C104.426 38.9689 105.234 40.3316 106.533 41.0427L108.478 37.4878ZM44.2604 77.8478L40.7663 79.8993C41.3304 80.8605 42.2656 81.5465 43.3515 81.7965C44.4375 82.0465 45.5782 81.8383 46.5061 81.2207L44.2604 77.8478ZM28.0521 67.0417L24.0708 66.2876C23.8671 67.3634 24.1072 68.4757 24.7366 69.3712C25.366 70.2671 26.331 70.8701 27.412 71.0431L28.0521 67.0417ZM31.6808 47.8855L32.8246 43.9983C31.727 43.6754 30.5438 43.8314 29.5674 44.4282C28.591 45.0251 27.9125 46.0069 27.6996 47.1314L31.6808 47.8855ZM60.4687 69.7554L61.9717 73.5181C63.691 72.8317 64.7259 71.0674 64.4868 69.2318L60.4687 69.7554ZM119.565 66.534L121.268 70.2112L119.565 66.534ZM85.4121 75.316L81.779 73.5214L79.6412 77.8494L84.2743 79.2048L85.4121 75.316ZM110.117 50.1129L108.415 46.4356L110.117 50.1129ZM148.278 44.4842L152.327 44.6333L152.476 40.5747L148.418 40.4345L148.278 44.4842ZM147.569 63.7384L147.429 67.7881L151.47 67.9275L151.618 63.8875L147.569 63.7384ZM105.863 79.0816L102.433 76.9239L105.863 79.0816ZM100.433 80.8803L98.8464 84.6087L100.433 80.8803ZM95.8556 119.428L99.5742 117.819L95.8556 119.428ZM94.7481 103.249L98.6515 104.336L94.7481 103.249ZM45.7358 72.9038C37.6122 80.0898 34.5683 89.9059 34.9123 100.123C35.2531 110.26 38.9084 120.982 44.3921 130.684C49.8871 140.405 57.3588 149.353 65.636 155.914C73.856 162.428 83.2447 166.874 92.5203 166.874V158.77C85.7594 158.77 78.1099 155.459 70.6699 149.562C63.2866 143.71 56.4758 135.592 51.4472 126.696C46.4072 117.779 43.2972 108.332 43.0116 99.8506C42.7291 91.4498 45.1977 84.1998 51.1056 78.9738L45.7358 72.9038ZM92.5203 166.874C101.772 166.874 111.402 162.452 119.929 155.904C128.52 149.307 136.388 140.258 142.155 130.297C153.487 110.727 157.623 85.5605 139.305 69.3574L133.935 75.4275C147.753 87.6493 145.875 107.699 135.141 126.236C129.876 135.331 122.698 143.56 114.993 149.476C107.223 155.443 99.3047 158.77 92.5203 158.77V166.874ZM139.305 69.3574C136.979 67.3002 135.166 66.2309 133.186 65.23C131.276 64.2644 129.507 63.4937 126.651 61.8096L122.534 68.7901C125.692 70.6525 127.933 71.655 129.53 72.4625C131.058 73.2345 132.252 73.9383 133.935 75.4275L139.305 69.3574ZM88.0683 71.8511C82.0315 69.8749 74.2021 67.9449 66.6615 67.5129C59.3107 67.0915 51.2413 68.0336 45.7358 72.9038L51.1056 78.9738C54.1248 76.3031 59.4071 75.2143 66.1976 75.6037C72.798 75.9822 79.9001 77.7043 85.5463 79.5529L88.0683 71.8511ZM69.346 48.9524L59.585 36.7105L53.2483 41.7632L63.0098 54.0049L69.346 48.9524ZM58.6007 42.6498L72.2664 33.9058L67.8986 27.0795L54.2326 35.8236L58.6007 42.6498ZM66.9144 33.0189L76.6759 45.2605L83.0121 40.208L73.2506 27.9664L66.9144 33.0189ZM81.5635 46.4036L92.7573 41.157L89.3179 33.8189L78.1241 39.0653L81.5635 46.4036ZM95.0897 37.4878V25.0518H86.9856V37.4878H95.0897ZM91.0376 29.1038L108.478 29.1037V20.9995L91.0372 20.9997L91.0376 29.1038ZM104.426 25.0516V37.4878H112.53V25.0516H104.426ZM108.478 37.4878C106.533 41.0427 106.532 41.0423 106.531 41.0415C106.531 41.0415 106.53 41.0411 106.53 41.0407C106.529 41.0403 106.528 41.0399 106.527 41.0395C106.525 41.0383 106.523 41.0375 106.523 41.037C106.52 41.0354 106.519 41.035 106.519 41.035C106.519 41.0346 106.523 41.037 106.531 41.0419C106.548 41.0516 106.582 41.0711 106.631 41.1003C106.73 41.1586 106.891 41.2555 107.102 41.3912C107.526 41.6635 108.15 42.0873 108.887 42.6607C110.375 43.816 112.269 45.5328 113.947 47.7882L120.448 42.9496C118.222 39.9584 115.757 37.7346 113.859 36.2609C112.906 35.5201 112.081 34.9573 111.48 34.5714C111.179 34.3782 110.933 34.2286 110.753 34.1223C110.663 34.0692 110.59 34.0269 110.534 33.9953C110.506 33.9795 110.483 33.9665 110.465 33.9561C110.455 33.9509 110.447 33.9463 110.44 33.9425C110.437 33.9406 110.433 33.9388 110.43 33.9372C110.429 33.9364 110.428 33.9357 110.426 33.9349C110.426 33.9346 110.425 33.9341 110.424 33.9339C110.424 33.9334 110.422 33.9329 108.478 37.4878ZM62.344 64.1898C63.2456 60.9769 64.8361 58.5866 66.2032 56.999C66.8856 56.2072 67.5015 55.6278 67.9262 55.2611C68.1381 55.0779 68.3002 54.9499 68.3966 54.8761C68.4449 54.8392 68.4765 54.8161 68.489 54.8068C68.4955 54.8024 68.4971 54.8012 68.4939 54.8036C68.4923 54.8048 68.4894 54.8068 68.485 54.8097C68.4829 54.8109 68.4805 54.8129 68.4781 54.8145C68.4765 54.8153 68.4753 54.8166 68.4736 54.8178C68.4728 54.8182 68.4716 54.819 68.4712 54.819C68.47 54.8202 68.4688 54.821 66.1781 51.4784C63.8871 48.1359 63.8859 48.1371 63.8846 48.1379C63.8842 48.1383 63.883 48.1391 63.8818 48.1395C63.8802 48.1412 63.8782 48.1424 63.8761 48.1436C63.8721 48.1464 63.8676 48.1497 63.8628 48.1529C63.8534 48.1594 63.8425 48.1671 63.8303 48.1756C63.806 48.193 63.7761 48.2141 63.7412 48.2392C63.6719 48.2895 63.5824 48.3555 63.4746 48.4378C63.2594 48.6023 62.9713 48.832 62.6297 49.127C61.9469 49.7166 61.0405 50.5752 60.0631 51.7102C58.1112 53.9762 55.834 57.3945 54.5414 62.0005L62.344 64.1898ZM44.2604 77.8478C47.7545 75.7962 47.7537 75.795 47.7529 75.7934C47.7529 75.793 47.7517 75.7913 47.7513 75.7905C47.7501 75.7881 47.7485 75.7861 47.7472 75.7836C47.7444 75.7788 47.7412 75.7735 47.7375 75.7674C47.7306 75.7557 47.7221 75.7415 47.7124 75.7253C47.6929 75.6929 47.6678 75.6519 47.637 75.6025C47.5758 75.5044 47.4924 75.3732 47.3866 75.2139C47.1751 74.8954 46.8736 74.4618 46.4806 73.9468C45.6969 72.9192 44.536 71.5496 42.9869 70.12C39.898 67.2694 35.1441 64.0727 28.6922 63.0407L27.412 71.0431C31.8463 71.7522 35.1963 73.9586 37.4902 76.0758C38.6329 77.1297 39.4826 78.1351 40.0369 78.862C40.3133 79.2238 40.5122 79.512 40.6346 79.6959C40.6954 79.7879 40.7371 79.8535 40.759 79.8888C40.77 79.9062 40.776 79.9164 40.7773 79.9184C40.7781 79.9192 40.7773 79.9184 40.7752 79.9151C40.7744 79.9135 40.7732 79.9115 40.7716 79.9091C40.7708 79.9078 40.77 79.9062 40.7692 79.9046C40.7687 79.9038 40.7679 79.9026 40.7675 79.9022C40.7667 79.901 40.7663 79.8993 44.2604 77.8478ZM32.0334 67.7958L35.6623 48.6396L27.6996 47.1314L24.0708 66.2876L32.0334 67.7958ZM31.6808 47.8855C30.5369 51.7726 30.5361 51.7726 30.5355 51.7722C30.5354 51.7722 30.5348 51.7722 30.5347 51.7722C30.5343 51.7722 30.5344 51.7722 30.5348 51.7722C30.5357 51.7726 30.5383 51.773 30.5423 51.7747C30.5506 51.7771 30.5651 51.7811 30.5858 51.7876C30.6271 51.8002 30.6929 51.82 30.7815 51.8476C30.9589 51.9027 31.2276 51.9878 31.575 52.1025C32.2703 52.3314 33.2777 52.6775 34.4973 53.1362C36.9464 54.0572 40.2015 55.4146 43.484 57.1696C46.7914 58.9375 49.973 61.028 52.3824 63.3677C54.8092 65.7243 56.1594 68.0434 56.4507 70.2785L64.4868 69.2318C63.8709 64.501 61.1689 60.6033 58.0282 57.5537C54.8696 54.4863 50.9674 51.9805 47.3047 50.0225C43.617 48.0512 40.0155 46.5536 37.3504 45.5511C36.0128 45.0478 34.8989 44.6649 34.112 44.4055C33.7181 44.2755 33.4053 44.1766 33.1869 44.1085C33.0775 44.0745 32.9916 44.0486 32.9308 44.0299C32.9004 44.021 32.8761 44.0137 32.8583 44.0084C32.8494 44.0056 32.8425 44.0036 32.8368 44.002C32.834 44.0011 32.8315 44.0003 32.8295 43.9995C32.8287 43.9995 32.8275 43.9991 32.8267 43.9991C32.8259 43.9987 32.8246 43.9983 31.6808 47.8855ZM58.9658 65.9922C53.7297 68.0835 49.5322 70.1784 46.6276 71.7603C45.1746 72.5521 44.0424 73.2162 43.2636 73.6899C42.8742 73.9266 42.5727 74.1158 42.3632 74.2491C42.2587 74.316 42.1768 74.3687 42.1189 74.4067C42.0897 74.4258 42.0662 74.4408 42.0492 74.4521C42.0403 74.4582 42.0334 74.4627 42.0277 74.4667C42.0245 74.4683 42.0221 74.4699 42.02 74.4716C42.0192 74.472 42.018 74.4728 42.0172 74.4732C42.0168 74.4736 42.0164 74.474 42.016 74.474C42.0156 74.4744 42.0148 74.4748 44.2604 77.8478C46.5061 81.2207 46.5053 81.2211 46.5049 81.2215C46.5049 81.2215 46.5045 81.2219 46.5041 81.2219C46.5037 81.2223 46.5032 81.2227 46.5028 81.2227C46.5024 81.2232 46.502 81.2235 46.502 81.2235C46.5024 81.2231 46.5041 81.2219 46.5073 81.2199C46.5134 81.2159 46.5255 81.2078 46.5434 81.1964C46.5794 81.1729 46.6382 81.1348 46.7192 81.0829C46.8821 80.9796 47.1346 80.8208 47.4729 80.6149C48.1504 80.2032 49.1711 79.6031 50.5039 78.8774C53.1709 77.4247 57.0776 75.4732 61.9717 73.5181L58.9658 65.9922ZM109.293 81.2394C112.996 75.3529 116.914 72.2267 121.268 70.2112L117.864 62.8567C112.025 65.5594 106.932 69.772 102.433 76.9239L109.293 81.2394ZM84.2743 79.2048C89.3017 80.6757 95.1647 83.0417 98.8464 84.6087L102.02 77.152C98.2763 75.5583 92.0539 73.0371 86.55 71.4268L84.2743 79.2048ZM108.415 46.4356C96.5574 51.9242 88.5099 59.8942 81.779 73.5214L89.0452 77.1103C95.05 64.954 101.823 58.4172 111.82 53.7902L108.415 46.4356ZM148.418 40.4345C133.211 39.9098 119.844 41.1456 108.415 46.4356L111.82 53.7902C121.532 49.2948 133.384 48.0249 148.138 48.5338L148.418 40.4345ZM151.618 63.8875L152.327 44.6333L144.228 44.335L143.52 63.5893L151.618 63.8875ZM121.268 70.2112C126.525 67.7779 133.479 67.3067 147.429 67.7881L147.709 59.6888C134.014 59.2163 125.133 59.4922 117.864 62.8567L121.268 70.2112ZM102.433 76.9239C102.364 77.0337 102.261 77.1087 102.161 77.1423C102.07 77.1731 102.031 77.1565 102.02 77.152L98.8464 84.6087C102.796 86.2899 107.168 84.6155 109.293 81.2394L102.433 76.9239ZM92.1366 121.037L93.808 124.9L101.246 121.682L99.5742 117.819L92.1366 121.037ZM93.4843 123.567L94.6189 140.193L102.704 139.642L101.57 123.015L93.4843 123.567ZM97.9942 127.316L115.24 125.314L114.305 117.264L97.0598 119.266L97.9942 127.316ZM101.364 78.0544L91.9283 98.4676L99.2844 101.868L108.72 81.4549L101.364 78.0544ZM91.703 99.0803L90.8448 102.161L98.6515 104.336L99.5097 101.255L91.703 99.0803ZM93.9369 96.4756L76.3006 104.451L79.6399 111.835L97.2762 103.86L93.9369 96.4756ZM78.8992 104.199L61.3266 100.059L59.4683 107.947L77.0409 112.087L78.8992 104.199ZM74.2021 106.653L68.2094 121.801L75.7455 124.782L81.7381 109.634L74.2021 106.653ZM99.5742 117.819C97.7329 113.562 97.4071 108.804 98.6515 104.336L90.8448 102.161C89.1024 108.416 89.5582 115.078 92.1366 121.037L99.5742 117.819Z" fill="#0BAB7C"/>
</g>
<defs>
<clipPath id="clip0_66_495">
<rect width="180" height="180" fill="white"/>
</clipPath>
</defs>
</svg>
