<svg width="300" height="300" viewBox="0 0 300 300" fill="none" xmlns="http://www.w3.org/2000/svg">
<g clip-path="url(#clip0_86_1398)">
<path d="M243.5 154.377C223.875 103.377 154 100.627 170.875 26.5022C172.125 21.0022 166.25 16.7522 161.5 19.6272C116.125 46.3772 83.4998 100.002 110.875 170.252C113.125 176.002 106.375 181.377 101.5 177.627C78.8748 160.502 76.4998 135.877 78.4998 118.252C79.2498 111.752 70.7498 108.627 67.1248 114.002C58.6248 127.002 49.9998 148.002 49.9998 179.627C54.7498 249.627 113.875 271.127 135.125 273.877C165.5 277.752 198.375 272.127 222 250.502C248 226.377 257.5 187.877 243.5 154.377ZM127.5 217.252C145.5 212.877 154.75 199.877 157.25 188.377C161.375 170.502 145.25 153.002 156.125 124.752C160.25 148.127 197 162.752 197 188.252C198 219.877 163.75 247.002 127.5 217.252Z" fill="white"/>
<path d="M243.5 154.377C223.875 103.377 154 100.627 170.875 26.5022C172.125 21.0022 166.25 16.7522 161.5 19.6272C116.125 46.3772 83.4998 100.002 110.875 170.252C113.125 176.002 106.375 181.377 101.5 177.627C78.8748 160.502 76.4998 135.877 78.4998 118.252C79.2498 111.752 70.7498 108.627 67.1248 114.002C58.6248 127.002 49.9998 148.002 49.9998 179.627C54.7498 249.627 113.875 271.127 135.125 273.877C165.5 277.752 198.375 272.127 222 250.502C248 226.377 257.5 187.877 243.5 154.377ZM127.5 217.252C145.5 212.877 154.75 199.877 157.25 188.377C161.375 170.502 145.25 153.002 156.125 124.752C160.25 148.127 197 162.752 197 188.252C198 219.877 163.75 247.002 127.5 217.252Z" fill="white"/>
</g>
<defs>
<clipPath id="clip0_86_1398">
<rect width="300" height="300" fill="white"/>
</clipPath>
</defs>
</svg>
