<svg width="180" height="180" viewBox="0 0 180 180" fill="none" xmlns="http://www.w3.org/2000/svg">
<path fill-rule="evenodd" clip-rule="evenodd" d="M86.8571 107.567C109.37 102.259 125.657 86.8205 125.657 68.6022C125.657 45.9949 100.578 27.668 69.6414 27.668C38.7051 27.668 13.6262 45.9949 13.6262 68.6022C13.6262 81.4245 21.694 92.8701 34.3225 100.376C15.0434 111.844 6.26448 132.765 14.7107 147.394C23.2484 162.182 46.1534 164.941 65.8703 153.557C84.9745 142.528 94.0761 122.267 86.8571 107.567ZM104.166 90.589C112.683 84.3648 117.039 76.4878 117.039 68.6022C117.039 60.7165 112.683 52.8395 104.166 46.6153C95.6549 40.3958 83.4768 36.2857 69.6414 36.2857C55.8061 36.2857 43.628 40.3958 35.1171 46.6153C26.6001 52.8395 22.2439 60.7165 22.2439 68.6022C22.2439 76.4878 26.6001 84.3648 35.1171 90.589C43.628 96.8084 55.8061 100.919 69.6414 100.919C83.4768 100.919 95.6549 96.8084 104.166 90.589ZM39.2614 107.47C40.8617 106.546 42.4766 105.737 44.0925 105.04C48.7693 106.795 53.8275 108.083 59.1528 108.82L58.5409 114.188C61.3227 114.505 62.7636 115.571 63.3854 116.648C64.0899 117.868 64.2519 120.053 62.5577 123.164C60.9048 126.2 57.7671 129.461 53.4099 131.976C49.0533 134.492 44.6604 135.579 41.2051 135.493C37.6636 135.404 35.8522 134.171 35.1477 132.95C34.5264 131.874 34.3234 130.093 35.4398 127.525L27.537 124.089C25.7335 128.237 25.2609 133.061 27.6846 137.259C30.4583 142.064 35.7919 143.978 40.9905 144.107C46.2753 144.239 52.2177 142.615 57.7188 139.439C63.2204 136.263 67.5977 131.929 70.1262 127.286C72.6128 122.719 73.622 117.143 70.8483 112.339C70.2266 111.262 69.4742 110.33 68.6228 109.53C68.9615 109.534 69.301 109.536 69.6414 109.536C72.3961 109.536 75.1046 109.391 77.7529 109.11C78.0786 109.552 78.3772 110.009 78.6487 110.479C81.2573 114.997 81.5231 121.056 78.6616 127.755C75.7988 134.457 69.9611 141.245 61.5614 146.094C53.1613 150.944 44.3643 152.606 37.1289 151.734C29.8968 150.863 24.7824 147.603 22.1739 143.085C19.5653 138.567 19.2996 132.508 22.1611 125.809C25.0239 119.107 30.8616 112.319 39.2614 107.47Z" fill="#0BAB7C"/>
<path fill-rule="evenodd" clip-rule="evenodd" d="M142.182 108.521C152.501 111.286 162.548 107.254 164.622 99.5137C166.696 91.7741 160.011 83.2581 149.691 80.4931C139.372 77.7281 129.325 81.7608 127.251 89.5003C125.177 97.2403 131.862 105.756 142.182 108.521ZM153.284 99.9592C155.451 99.0893 156.12 97.9457 156.298 97.2834C156.475 96.6212 156.468 95.2962 155.025 93.4589C153.581 91.6194 150.994 89.764 147.461 88.8174C143.928 87.8707 140.76 88.184 138.589 89.0548C136.422 89.9248 135.753 91.0683 135.575 91.731C135.398 92.3933 135.405 93.7183 136.848 95.5551C138.291 97.395 140.879 99.2504 144.412 100.197C147.945 101.144 151.113 100.83 153.284 99.9592Z" fill="#0BAB7C"/>
<path d="M88.9686 70.9298C93.8984 68.348 95.4935 65.5317 95.4935 63.575C95.4935 61.8661 94.3133 59.5152 90.6004 57.16L95.216 49.8823C100.116 52.9907 104.111 57.6452 104.111 63.575C104.111 70.3442 98.9544 75.4278 92.9677 78.5638C86.7762 81.8067 78.5218 83.6832 69.6403 83.6832C60.7589 83.6832 52.5044 81.8067 46.313 78.5638C40.3263 75.4278 35.1694 70.3442 35.1694 63.575C35.1694 57.6452 39.1642 52.9907 44.0646 49.8823L48.6803 57.16C44.9674 59.5152 43.7872 61.8661 43.7872 63.575C43.7872 65.5317 45.3823 68.348 50.3121 70.9298C55.0372 73.4053 61.8637 75.0655 69.6403 75.0655C77.417 75.0655 84.2435 73.4053 88.9686 70.9298Z" fill="#0BAB7C"/>
</svg>
