<svg width="180" height="180" viewBox="0 0 180 180" fill="none" xmlns="http://www.w3.org/2000/svg">
<g clip-path="url(#clip0_66_548)">
<path fill-rule="evenodd" clip-rule="evenodd" d="M93.7065 19.0509C94.7555 21.3799 93.7181 24.1183 91.3889 25.1673C83.3613 28.7831 77.7808 36.8357 77.7494 46.1856L77.7498 40.7832L77.7494 40.8627C77.7924 53.5981 88.1292 63.9086 100.874 63.9086C112.803 63.9086 122.627 54.8737 123.867 43.277C124.139 40.7369 126.418 38.8985 128.957 39.17C131.497 39.4419 133.336 41.7211 133.064 44.2607C132.333 51.1029 129.471 57.3074 125.156 62.1978C132.099 63.7583 138.199 67.5494 142.657 72.7701C144.316 74.7126 144.086 77.6319 142.143 79.2909C140.201 80.9494 137.281 80.7196 135.622 78.7771C131.374 73.8019 125.07 70.6602 118.028 70.6602C105.257 70.6602 94.9035 81.0132 94.9035 93.7852C94.9035 97.6211 95.834 101.231 97.4824 104.41C101.08 103.932 104.841 105.217 107.395 108.166C108.569 109.522 109.629 110.907 110.59 112.311C112.156 114.597 112.753 117.255 112.477 119.806C114.582 121.113 116.267 123.128 117.135 125.657C118.169 128.672 118.95 131.588 119.601 134.132C120.106 136.108 120.049 138.094 119.532 139.921C120.742 140.986 121.741 142.33 122.418 143.913C122.888 145.012 123.212 145.402 123.295 145.489C123.608 145.711 123.906 145.947 124.188 146.195C125.053 145.856 125.973 145.62 126.937 145.504C127.763 145.405 128.722 145.245 129.831 145.003C133.678 144.166 137.493 145.423 140.089 148.01C142.073 146.816 143.529 145.041 144.255 142.849C145.175 140.067 145.094 136.046 142.441 130.899C141.27 128.629 142.162 125.84 144.432 124.669C146.702 123.498 149.491 124.39 150.662 126.66C152.546 130.314 153.626 133.9 153.941 137.305C156.759 133.957 159.733 129.432 162.165 123.467C163.129 121.101 165.828 119.965 168.193 120.929C170.559 121.894 171.695 124.593 170.731 126.958C167.836 134.06 164.241 139.489 160.776 143.547C163.03 143.814 165.399 144.37 167.964 145.26C170.377 146.097 171.654 148.732 170.817 151.145C169.98 153.559 167.345 154.836 164.931 153.998C160.333 152.403 157.06 152.341 153.874 153.001C150.906 153.616 147.986 154.836 143.911 156.54L143.328 156.784C142.952 161.562 139.501 165.733 134.577 166.805C132.871 167.176 131.211 167.464 129.596 167.657C126.318 168.051 123.206 166.982 120.908 164.965C117.531 166.288 113.576 165.941 110.393 163.692C105.982 160.577 103.476 156.367 101.902 152.682C100.858 150.241 100.753 147.638 101.421 145.272C99.793 143.842 98.5623 141.923 97.9842 139.661C97.3709 137.263 96.7664 135.045 96.0301 132.898C95.4816 131.299 95.3179 129.661 95.4881 128.086C94.2157 127.295 93.0817 126.233 92.1803 124.916C91.6752 124.179 91.1272 123.464 90.5278 122.772C87.3231 119.071 86.9841 113.863 89.3169 109.855C85.141 105.759 79.4273 103.241 73.1244 103.241C65.7267 103.241 59.1398 106.714 54.907 112.12C54.592 112.577 54.2659 113.026 53.9283 113.466C51.4475 117.151 49.9994 121.589 49.9994 126.365C49.9994 130.774 51.2282 134.881 53.3599 138.378C54.6891 140.56 53.9981 143.405 51.817 144.735C49.6358 146.064 46.7901 145.373 45.4609 143.192C42.4708 138.285 40.7494 132.519 40.7494 126.365C40.7494 125.433 40.7887 124.51 40.8659 123.597C36.9809 125.247 32.7074 126.16 28.2207 126.16C25.9748 126.16 23.778 125.931 21.6537 125.493C19.152 124.977 17.5421 122.53 18.0579 120.029C18.5737 117.527 21.0199 115.918 23.5217 116.433C25.035 116.745 26.6061 116.91 28.2207 116.91C35.6184 116.91 42.2049 113.436 46.4381 108.031C46.7526 107.573 47.0792 107.124 47.4168 106.684C49.8976 102.999 51.3457 98.5614 51.3457 93.7852C51.3457 81.0132 40.9922 70.6602 28.2207 70.6602C21.4303 70.6602 15.3287 73.5809 11.0916 78.2489C9.37489 80.14 6.44995 80.2816 4.55855 78.5648C2.66721 76.848 2.52563 73.9231 4.24239 72.032C8.63512 67.1924 14.4823 63.6838 21.0937 62.1978C16.9096 57.4563 14.0922 51.4794 13.2573 44.8837C12.9366 42.3497 14.7309 40.0353 17.265 39.7143C19.7991 39.3938 22.1134 41.1879 22.4339 43.7224C23.8746 55.104 33.6001 63.9081 45.3748 63.9081C58.1195 63.9081 68.4564 53.5981 68.4994 40.8636V40.7836V46.1846C68.4684 36.9888 63.0696 31.7884 55.252 28.089C52.9432 29.7371 51.9571 24.2389 53.05 21.9301C54.1424 19.6213 56.8999 18.6354 59.2087 19.728C64.9927 22.4649 69.8388 26.8686 73.1244 32.3212C76.5136 26.697 81.5636 19.448 87.59 16.7334C89.9191 15.6844 92.6576 16.722 93.7065 19.0509ZM60.4787 96.5532C64.3637 94.9035 68.6377 93.9905 73.1244 93.9905C77.6115 93.9905 81.886 94.9044 85.7705 96.5546C85.6928 95.6412 85.6535 94.7176 85.6535 93.7852C85.6535 85.5749 88.7097 78.0782 93.7463 72.3714C85.0111 70.4086 77.6115 64.9155 73.1244 57.4688C68.6372 64.9155 61.2377 70.4086 52.5024 72.371C57.539 78.0782 60.5957 85.5749 60.5957 93.7852C60.5957 94.7176 60.5559 95.6407 60.4787 96.5532ZM73.1244 77.803C71.8492 77.803 70.8151 78.8367 70.8151 80.1123C70.8151 81.3874 71.8492 82.4216 73.1244 82.4216C74.3999 82.4216 75.4336 81.3874 75.4336 80.1123C75.4336 78.8367 74.3999 77.803 73.1244 77.803ZM61.5651 80.1123C61.5651 73.7284 66.7405 68.553 73.1244 68.553C79.5082 68.553 84.6836 73.7284 84.6836 80.1123C84.6836 86.4962 79.5082 91.6715 73.1244 91.6715C66.7405 91.6715 61.5651 86.4962 61.5651 80.1123ZM105.109 128.067L105.662 127.389L106.543 127.37C107.355 127.353 108.112 127.862 108.385 128.659C109.296 131.314 110.004 133.942 110.639 136.424C110.822 137.14 110.576 137.873 110.04 138.34L109.386 138.908L108.526 138.786C107.776 138.679 107.141 138.132 106.946 137.369C106.317 134.911 105.639 132.403 104.779 129.896C104.559 129.254 104.697 128.572 105.109 128.067ZM112.422 146.408L111.566 146.286L110.908 146.857C110.296 147.389 110.076 148.272 110.407 149.046C111.607 151.855 113.229 154.371 115.729 156.137C116.571 156.731 117.729 156.548 118.346 155.735L118.941 154.949L118.648 154.009C118.527 153.622 118.289 153.277 117.929 153.023C116.217 151.814 114.959 149.996 113.913 147.548C113.643 146.918 113.074 146.501 112.422 146.408ZM126.748 155.429L126.154 156.212L126.447 157.155C126.715 158.013 127.571 158.584 128.493 158.474C129.781 158.319 131.151 158.084 132.609 157.767C133.638 157.543 134.29 156.527 134.067 155.499C133.842 154.47 132.827 153.818 131.798 154.042C130.442 154.337 129.192 154.55 128.039 154.688C127.505 154.753 127.054 155.026 126.748 155.429ZM101.43 120.52L102.305 120.502L102.864 119.819C103.388 119.178 103.444 118.246 102.958 117.536C102.186 116.41 101.338 115.302 100.402 114.221C99.713 113.425 98.5091 113.339 97.7136 114.028C96.9177 114.717 96.8312 115.921 97.5203 116.717C98.3579 117.684 99.1187 118.677 99.8124 119.69C100.187 120.237 100.795 120.533 101.43 120.52ZM123.313 145.506C123.313 145.506 123.312 145.503 123.301 145.494C123.307 145.5 123.313 145.506 123.313 145.506Z" fill="#0BAB7C"/>
</g>
<defs>
<clipPath id="clip0_66_548">
<rect width="180" height="180" fill="white" transform="translate(0.000976562 -0.000976562)"/>
</clipPath>
</defs>
</svg>
