<svg width="180" height="180" viewBox="0 0 180 180" fill="none" xmlns="http://www.w3.org/2000/svg">
<path fill-rule="evenodd" clip-rule="evenodd" d="M82.2692 40.7986C81.3246 40.2716 80.516 40.1579 79.5355 40.4955C79.344 40.5614 79.1679 40.6336 79.0063 40.7131L79.0055 40.7178L78.9918 40.7255L78.9307 40.7597L78.6772 40.9033C78.6571 40.9148 78.6362 40.9264 78.6144 40.9388C77.91 41.4136 77.5395 42.1022 77.31 43.1356C76.93 44.8453 77.0911 47.0986 77.4907 49.6323C77.9464 52.5216 79.4697 56.5991 81.6533 59.3379C82.7261 60.6838 83.7433 61.4373 84.5905 61.7549C85.2948 62.0191 86.1189 62.0853 87.2998 61.531C89.0838 60.6937 90.1882 58.6442 89.7301 54.5253C89.2843 50.5183 87.4225 46.2929 85.7304 44.0973C84.5315 42.542 83.3629 41.4089 82.2692 40.7986ZM74.1317 33.6549C74.9071 33.1678 75.7781 32.7483 76.7539 32.4124C80.3882 31.1616 83.7194 31.8192 86.4339 33.3335C88.9988 34.7645 91.0084 36.9426 92.5005 38.8789C95.1714 42.3441 97.6115 48.0556 98.2261 53.5803C98.6728 57.5954 98.1953 62.526 95.1351 66.1107C102.997 65.8482 109.26 66.63 115.251 67.3907L115.46 67.4172C121.701 68.2101 127.651 68.9658 135.278 68.6802C138.825 68.5477 141.852 67.8365 145.13 67.0668C146.023 66.8565 146.936 66.6424 147.883 66.4342C152.141 65.4973 156.91 64.7613 162.246 66.335C164.029 66.8612 165.612 67.8023 166.802 69.2295C167.981 70.6446 168.553 72.2722 168.767 73.8233C169.172 76.7591 168.357 79.8519 167.42 82.3531C165.496 87.4901 162.105 92.5515 160.868 94.2988C156.639 100.274 151.673 103.664 146.299 105.423C141.066 107.136 135.684 107.219 130.799 107.047C129.365 106.997 127.995 106.927 126.672 106.86C123.257 106.687 120.149 106.53 117.045 106.756C114.971 106.907 113.045 107.228 111.248 107.809C112.248 107.999 113.244 108.247 114.237 108.555C122.333 111.062 129.467 117.267 136.178 125.462C137.174 126.479 137.95 127.56 138.529 128.818C139.116 130.092 139.418 131.376 139.641 132.587C140.252 135.902 139.314 139.253 137.918 142.033C136.49 144.876 134.37 147.56 131.955 149.729C129.557 151.883 126.652 153.718 123.556 154.593C120.411 155.481 116.764 155.434 113.547 153.268C111.871 152.139 110.851 150.338 110.388 149.45C110.173 149.039 109.995 148.656 109.856 148.339C107.408 145.87 105.826 144.63 104.488 144.018C103.53 143.58 102.517 143.381 100.954 143.605C100.683 143.87 100.36 144.182 99.9905 144.534C98.8006 145.67 97.1208 147.227 95.1577 148.919C91.3187 152.227 86.0744 156.331 81.1806 158.626C71.2497 163.284 61.2081 165.345 51.6333 163.683C41.9747 162.006 33.2863 156.624 26.019 147.319C7.82449 124.023 14.3963 90.5474 29.5609 69.2166C36.0555 60.0808 47.5746 51.047 57.0717 44.4657C61.8898 41.1272 66.3187 38.3319 69.5439 36.3706C71.1574 35.3891 72.4734 34.6143 73.3897 34.0827C73.6774 33.9158 73.9257 33.7728 74.1317 33.6549ZM95.8189 136.659L96.693 135.769L97.9098 135.489C101.505 134.662 104.762 134.742 108.045 136.245C108.65 136.522 109.241 136.841 109.823 137.198C110.588 135.309 111.846 133.474 113.181 131.892C114.901 129.854 117.065 127.864 119.389 126.262C120.584 125.439 121.893 124.668 123.268 124.049C119.293 120.317 115.478 117.888 111.708 116.721C106.233 115.025 100.147 115.782 92.6441 120.597L92.5997 120.626L71.3719 133.519L70.8561 133.675L69.614 129.586C70.8561 133.675 70.8561 133.675 70.8561 133.675L70.8514 133.677L70.8257 133.685L70.7654 133.703L70.5607 133.762C70.388 133.811 70.1457 133.879 69.8469 133.958C69.252 134.116 68.4207 134.322 67.4688 134.519C65.687 134.887 63.028 135.32 60.6816 135.1C57.7222 134.822 54.9508 134.227 52.3543 132.933C49.7249 131.623 47.5331 129.726 45.5384 127.202C41.5131 122.11 41.0545 117.462 40.9609 112.04C40.8728 106.93 41.9546 102.803 44.0134 99.0182C45.9945 95.3767 48.8167 92.1895 51.8555 88.9198C57.8735 82.4446 67.3419 75.2316 74.7506 69.9663C75.0049 69.7671 75.2686 69.5812 75.5396 69.4073C76.3825 68.8123 77.1993 68.2417 77.9827 67.6993C76.8291 66.7928 75.8268 65.7431 74.9686 64.6664C71.6976 60.5629 69.6879 55.0292 69.0468 50.9637C68.8648 49.8092 68.6831 48.4706 68.5976 47.0473C66.5401 48.3723 64.2868 49.8661 61.9403 51.4919C52.5112 58.0258 42.0897 66.3462 36.5278 74.1695C22.5662 93.8081 17.7911 122.897 32.7559 142.057C38.9123 149.94 45.8179 153.997 53.0955 155.261C60.4563 156.539 68.6917 155.041 77.551 150.887C81.3255 149.117 85.8325 145.67 89.5779 142.443C91.4068 140.867 92.9775 139.411 94.0901 138.35C94.6453 137.82 95.0838 137.391 95.3804 137.097C95.5292 136.95 95.6416 136.838 95.7159 136.763L95.7976 136.681L95.8189 136.659ZM80.2706 76.5313C80.1125 76.6433 79.9539 76.7557 79.7941 76.869C72.3969 82.1223 63.511 88.9352 58.1171 94.7394C55.0607 98.0275 52.9313 100.513 51.5222 103.103C50.1912 105.55 49.4445 108.212 49.5078 111.893C49.5911 116.731 49.9848 119.042 52.2445 121.901C53.6148 123.634 54.8679 124.635 56.1668 125.282C57.4986 125.946 59.1399 126.369 61.4804 126.589C62.4865 126.683 64.094 126.487 65.7404 126.147C66.5029 125.99 67.1765 125.822 67.6573 125.695C67.7411 125.673 67.818 125.652 67.889 125.633L87.9375 113.456L101.178 103.514C106.016 99.882 111.308 98.6028 116.424 98.2297C120.098 97.9621 123.995 98.1604 127.581 98.3429C128.796 98.4049 129.975 98.4647 131.099 98.5041C135.781 98.6686 139.904 98.522 143.639 97.2992C147.232 96.1234 150.698 93.8714 153.891 89.3605C155.027 87.7551 157.89 83.4246 159.415 79.3548C160.202 77.2528 160.409 75.7885 160.299 74.9918C160.277 74.829 160.248 74.7418 160.231 74.7033C160.184 74.6708 160.067 74.6046 159.827 74.5341C156.63 73.5908 153.618 73.9254 149.719 74.7828C149.001 74.9405 148.241 75.1205 147.444 75.3089C144.089 76.1026 140.059 77.0558 135.598 77.2225C127.265 77.534 120.727 76.7036 114.527 75.9154L114.174 75.871C107.881 75.0717 101.891 74.337 94.1961 74.7037L94.014 74.7123L93.8319 74.7054C91.9449 74.6345 88.862 74.6849 85.9116 75.0645C84.4387 75.2538 83.0924 75.5137 81.9884 75.8432C81.1366 76.0975 80.589 76.3467 80.2706 76.5313ZM117.659 144.847C117.738 145.031 117.842 145.258 117.965 145.493C118.114 145.779 118.258 146.014 118.381 146.179C118.402 146.207 118.42 146.23 118.434 146.248C119.009 146.588 119.864 146.753 121.233 146.366C122.741 145.94 124.524 144.913 126.244 143.369C127.946 141.84 129.377 139.992 130.278 138.196C131.212 136.338 131.384 134.944 131.235 134.136C131.06 133.188 130.912 132.714 130.764 132.392C130.64 132.124 130.452 131.818 129.994 131.365L129.987 131.359C129.913 131.284 129.673 131.043 128.654 131.226C127.514 131.43 125.965 132.111 124.241 133.3C122.558 134.46 120.955 135.934 119.714 137.405C118.405 138.956 117.784 140.164 117.627 140.753C117.499 141.232 117.451 142.221 117.526 143.426C117.559 143.96 117.609 144.438 117.651 144.781C117.653 144.803 117.656 144.825 117.659 144.847Z" fill="#0BAB7C"/>
</svg>
