<svg width="180" height="180" viewBox="0 0 180 180" fill="none" xmlns="http://www.w3.org/2000/svg">
<path fill-rule="evenodd" clip-rule="evenodd" d="M77.7442 103.243C77.7458 105.418 75.9846 107.182 73.8099 107.184C71.6352 107.186 69.8708 105.424 69.8692 103.25C69.8673 101.075 71.6285 99.3106 73.8032 99.3086C75.9779 99.307 77.7423 101.068 77.7442 103.243ZM97.4349 107.164C97.4364 109.339 95.6752 111.103 93.5005 111.105C91.3258 111.107 89.5614 109.345 89.5599 107.171C89.5579 104.996 91.3195 103.232 93.4938 103.23C95.6685 103.228 97.4329 104.99 97.4349 107.164ZM81.701 126.865C83.8753 126.863 85.6369 125.099 85.635 122.924C85.6334 120.749 83.869 118.988 81.6943 118.99C79.5196 118.992 77.7584 120.756 77.76 122.93C77.7619 125.105 79.5263 126.867 81.701 126.865ZM105.319 118.97C105.321 121.145 103.56 122.91 101.385 122.911C99.2107 122.913 97.4463 121.151 97.4443 118.977C97.4427 116.802 99.204 115.038 101.379 115.036C103.553 115.035 105.318 116.796 105.319 118.97ZM109.273 138.655C111.448 138.653 113.209 136.888 113.207 134.714C113.205 132.539 111.441 130.778 109.267 130.78C107.092 130.781 105.33 132.546 105.332 134.72C105.334 136.895 107.098 138.656 109.273 138.655ZM121.069 118.957C121.071 121.132 119.31 122.897 117.135 122.898C114.961 122.9 113.196 121.138 113.194 118.964C113.193 116.79 114.954 115.025 117.129 115.023C119.303 115.022 121.068 116.783 121.069 118.957ZM89.5886 142.608C91.7633 142.606 93.5249 140.842 93.523 138.667C93.5214 136.493 91.757 134.732 89.5823 134.733C87.4076 134.735 85.6464 136.499 85.648 138.674C85.6499 140.849 87.4143 142.61 89.5886 142.608ZM73.8323 134.746C73.8343 136.921 72.0727 138.685 69.898 138.687C67.7233 138.689 65.9593 136.927 65.9573 134.753C65.9557 132.578 67.717 130.814 69.8917 130.812C72.0664 130.81 73.8307 132.572 73.8323 134.746ZM62.01 122.943C64.1847 122.941 65.9463 121.177 65.9443 119.003C65.9428 116.828 64.1784 115.066 62.0037 115.068C59.829 115.07 58.0678 116.834 58.0693 119.009C58.0713 121.184 59.8357 122.945 62.01 122.943Z" fill="#0BAB7C" stroke="#0BAB7C" stroke-width="2.4"/>
<path fill-rule="evenodd" clip-rule="evenodd" d="M91.5932 20.6245C94.855 20.6245 97.4995 23.2688 97.4995 26.5308V87.562H105.374V38.3432C105.374 35.0813 108.019 32.437 111.281 32.437C114.543 32.437 117.187 35.0813 117.187 38.3432V99.7111C117.187 107.209 126.675 110.464 131.278 104.546L143.825 88.414C146.245 85.3026 150.961 85.344 153.326 88.4975C154.791 90.4513 154.921 93.0996 153.653 95.1873L125.288 141.896C117.566 154.611 103.768 162.374 88.8925 162.374C65.3758 162.374 46.312 143.311 46.312 119.794V61.9682C46.312 58.7064 48.9564 56.062 52.2183 56.062C55.4801 56.062 58.1245 58.7064 58.1245 61.9682V95.9H65.9995V38.3432C65.9995 35.0813 68.6439 32.437 71.9057 32.437C75.1676 32.437 77.812 35.0813 77.812 38.3432V87.562H85.687V26.5308C85.687 23.2688 88.3314 20.6245 91.5932 20.6245ZM77.8265 25.8951C78.1585 18.579 84.1951 12.7495 91.5932 12.7495C98.9914 12.7495 105.028 18.579 105.36 25.8951C107.154 25.0404 109.162 24.562 111.281 24.562C118.892 24.562 125.062 30.7321 125.062 38.3432V99.7111L137.609 83.5792C143.217 76.3692 154.145 76.4649 159.626 83.7725C163.022 88.2998 163.322 94.4376 160.384 99.2748L132.018 145.984C122.869 161.05 106.519 170.249 88.8925 170.249C61.0268 170.249 38.437 147.66 38.437 119.794V61.9682C38.437 54.357 44.6071 48.187 52.2183 48.187C54.3319 48.187 56.3345 48.6626 58.1245 49.5131V38.3432C58.1245 30.7321 64.2946 24.562 71.9057 24.562C74.0249 24.562 76.0326 25.0404 77.8265 25.8951Z" fill="#0BAB7C" stroke="#0BAB7C" stroke-width="2.4"/>
</svg>
