<svg width="300" height="300" viewBox="0 0 300 300" fill="none" xmlns="http://www.w3.org/2000/svg">
<path fill-rule="evenodd" clip-rule="evenodd" d="M71.0127 71C53.8849 71 40 84.8849 40 102.013V198.497C40 215.625 53.8849 229.509 71.0127 229.509C88.1405 229.509 102.025 215.624 102.025 198.497V102.013C102.025 84.8849 88.1405 71 71.0127 71ZM118.566 102.013C118.566 84.8849 132.451 71 149.578 71C166.706 71 180.591 84.8849 180.591 102.013V198.497C180.591 215.624 166.706 229.509 149.578 229.509C132.451 229.509 118.566 215.625 118.566 198.497V102.013ZM197.131 121.308C197.131 104.18 211.016 90.2956 228.144 90.2956C245.272 90.2956 259.157 104.18 259.157 121.308V177.82C259.157 194.948 245.272 208.833 228.144 208.833C211.016 208.833 197.131 194.948 197.131 177.82V121.308Z" fill="#FBE3CD"/>
<path fill-rule="evenodd" clip-rule="evenodd" d="M102.025 155.077H40V198.494C40 215.622 53.8849 229.507 71.0127 229.507C88.1405 229.507 102.025 215.622 102.025 198.494V155.077ZM118.566 155.077H180.591V198.495C180.591 215.622 166.706 229.507 149.578 229.507C132.451 229.507 118.566 215.622 118.566 198.495V155.077ZM197.131 155.077H259.157V179.725C259.157 196.853 245.272 210.738 228.144 210.738C211.016 210.738 197.131 196.853 197.131 179.725V155.077Z" fill="#FDC179"/>
</svg>
