<svg width="180" height="180" viewBox="0 0 180 180" fill="none" xmlns="http://www.w3.org/2000/svg">
<g clip-path="url(#clip0_66_299)">
<path d="M51.8608 24.2373C56.8803 38.796 74.3972 44.2326 74.3972 44.2326C118.275 1.50352 159.568 44.2324 164.401 78.663C174.236 148.733 112.453 179.539 43.5908 148.733C35.7389 154.169 31.5106 160.814 31.5106 160.814" stroke="#0BAB7C" stroke-width="8.59632" stroke-linecap="round"/>
<path d="M27.2823 33.9629C27.2823 33.9629 44.7992 65.3741 74.3975 65.3741C74.3975 72.0189 74.3975 78.0591 82.2501 83.4952C80.4381 85.912 76.8138 94.9727 82.2502 103.429C77.4178 103.429 67.5655 106.45 64.1288 116.114C54.464 113.094 42.9871 119.135 41.175 128.799C31.5584 128.32 22.4495 143.297 22.4495 143.297" stroke="#0BAB7C" stroke-width="8.59632" stroke-linecap="round"/>
<circle cx="110.641" cy="90.4489" r="9.06072" stroke="#0BAB7C" stroke-width="8.59632"/>
<circle cx="122.722" cy="123.966" r="9.06072" stroke="#0BAB7C" stroke-width="8.59632"/>
<circle cx="141.57" cy="92.93" r="4.29816" stroke="#0BAB7C" stroke-width="8.59632"/>
<circle cx="75.6649" cy="133.046" r="4.29816" stroke="#0BAB7C" stroke-width="8.59632"/>
</g>
<defs>
<clipPath id="clip0_66_299">
<rect width="180" height="180" fill="white" transform="translate(-0.000976562)"/>
</clipPath>
</defs>
</svg>
