<svg width="180" height="180" viewBox="0 0 180 180" fill="none" xmlns="http://www.w3.org/2000/svg">
<path d="M112.842 45V45.0006L112.767 90L112.842 45ZM112.842 45C112.842 32.3611 102.639 22.1579 89.9996 22.1579C77.3607 22.1579 67.1575 32.3611 67.1575 45V90C67.1575 102.639 77.3607 112.842 89.9996 112.842C102.64 112.842 112.766 102.638 112.767 90.0006L112.842 45ZM129.036 95.2755L129.036 95.277C126.288 114.664 108.825 127.908 89.9996 127.908C71.1741 127.908 53.7117 114.738 50.9634 95.2772L50.9631 95.2755C50.4878 92.0271 47.639 89.6579 44.3996 89.6579C40.293 89.6579 37.1324 93.2902 37.6856 97.3215L37.6865 97.3274C41.1461 119.664 59.8735 137.19 82.1575 140.693V157.5C82.1575 161.814 85.6857 165.342 89.9996 165.342C94.3136 165.342 97.8417 161.814 97.8417 157.5V140.695C120.054 137.338 138.854 119.662 142.313 97.3274L142.314 97.3215C142.867 93.2902 139.706 89.6579 135.6 89.6579C132.283 89.6579 129.511 92.0296 129.036 95.2755ZM38.0246 97.275L38.0244 97.275L38.0246 97.275Z" fill="white" stroke="white" stroke-width="0.684211"/>
</svg>
