<svg width="180" height="180" viewBox="0 0 180 180" fill="none" xmlns="http://www.w3.org/2000/svg">
<g clip-path="url(#clip0_59_3249)">
<path fill-rule="evenodd" clip-rule="evenodd" d="M50.6872 27.7232C50.6872 22.3103 55.6427 18.3517 60.8588 19.3498C82.9498 23.5768 97.0483 23.6264 119.122 19.3645C124.341 18.3569 129.312 22.3137 129.312 27.7366V29.4959H132.5C137.194 29.4959 141 33.3015 141 37.9959V44.4895C141 49.1841 137.194 52.9895 132.5 52.9895H129.312V56.7227C129.312 60.5669 126.718 63.9707 122.947 64.9299C110.817 68.0158 100.742 69.6083 90.4336 69.6045C80.1329 69.6011 69.794 68.0039 57.1383 64.9159C53.329 63.9864 50.6872 60.5656 50.6872 56.6849V52.9895H47.4997C42.8052 52.9895 38.9998 49.1841 38.9998 44.4895V37.9959C38.9998 33.3015 42.8052 29.4959 47.4997 29.4959H50.6872V27.7232ZM59.1872 27.7232C59.1872 27.7236 59.1872 27.7228 59.1872 27.7232V29.4959C59.1872 34.1903 55.3818 37.9959 50.6872 37.9959H47.4997V44.4895H50.6872C55.3818 44.4895 59.1872 48.2954 59.1872 52.9895V56.6666C71.451 59.6569 81.062 61.1015 90.4366 61.1045C99.8006 61.1079 109.125 59.6735 120.812 56.7023V52.9895C120.812 48.2954 124.618 44.4895 129.312 44.4895H132.5V37.9959H129.312C124.618 37.9959 120.812 34.1903 120.812 29.4959V27.7366C120.812 27.7362 120.812 27.7371 120.812 27.7366C120.81 27.7344 120.807 27.7303 120.803 27.7271C120.791 27.7168 120.778 27.7113 120.77 27.7092L120.76 27.7077C120.757 27.7076 120.749 27.7075 120.734 27.7104C97.5809 32.1806 82.3931 32.1245 59.2616 27.6984C59.2467 27.6956 59.2391 27.6956 59.2361 27.6958L59.2272 27.6971C59.22 27.699 59.2076 27.7042 59.1957 27.7143C59.1919 27.7172 59.1894 27.7211 59.1872 27.7232Z" fill="#0BAB7C"/>
<path fill-rule="evenodd" clip-rule="evenodd" d="M68.7495 35.25C71.0968 35.25 72.9995 37.1528 72.9995 39.5V47.9999C72.9995 50.3472 71.0968 52.2499 68.7495 52.2499C66.4022 52.2499 64.4995 50.3472 64.4995 47.9999V39.5C64.4995 37.1528 66.4022 35.25 68.7495 35.25Z" fill="#0BAB7C"/>
<path fill-rule="evenodd" clip-rule="evenodd" d="M50.6872 78.7232C50.6872 73.31 55.6427 69.3516 60.8588 70.3499C82.9498 74.5769 97.0483 74.6262 119.122 70.3643C124.341 69.3567 129.312 73.3134 129.312 78.7364V80.4959H132.5C137.194 80.4959 141 84.3014 141 88.9959V95.4895C141 100.184 137.194 103.989 132.5 103.989H129.312V107.723C129.312 111.567 126.718 114.971 122.947 115.93C110.817 119.016 100.742 120.608 90.4336 120.604C80.1329 120.601 69.794 119.004 57.1383 115.916C53.329 114.986 50.6872 111.566 50.6872 107.685V103.989H47.4997C42.8052 103.989 38.9998 100.184 38.9998 95.4895V88.9959C38.9998 84.3014 42.8052 80.4959 47.4997 80.4959H50.6872V78.7232ZM59.1872 78.7232C59.1872 78.7228 59.1872 78.7237 59.1872 78.7232V80.4959C59.1872 85.1905 55.3818 88.9959 50.6872 88.9959H47.4997V95.4895H50.6872C55.3818 95.4895 59.1872 99.2953 59.1872 103.989V107.667C71.451 110.657 81.062 112.101 90.4366 112.104C99.8006 112.108 109.125 110.673 120.812 107.702V103.989C120.812 99.2953 124.618 95.4895 129.312 95.4895H132.5V88.9959H129.312C124.618 88.9959 120.812 85.1905 120.812 80.4959V78.7364C120.812 78.7368 120.812 78.736 120.812 78.7364C120.81 78.7343 120.807 78.73 120.803 78.7271C120.791 78.7169 120.778 78.7113 120.77 78.7092L120.76 78.7075C120.757 78.7075 120.749 78.7075 120.734 78.7105C97.5809 83.1806 82.3931 83.1245 59.2616 78.6982C59.2467 78.6956 59.2391 78.6956 59.2361 78.6956L59.2272 78.6969C59.22 78.699 59.2076 78.7041 59.1957 78.7143C59.1919 78.7173 59.1894 78.7211 59.1872 78.7232Z" fill="#0BAB7C"/>
<path fill-rule="evenodd" clip-rule="evenodd" d="M68.7495 86.25C71.0968 86.25 72.9995 88.1527 72.9995 90.5V99C72.9995 101.347 71.0968 103.25 68.7495 103.25C66.4022 103.25 64.4995 101.347 64.4995 99V90.5C64.4995 88.1527 66.4022 86.25 68.7495 86.25Z" fill="#0BAB7C"/>
<path fill-rule="evenodd" clip-rule="evenodd" d="M50.6872 129.723C50.6872 124.31 55.6427 120.352 60.8588 121.35C82.9498 125.577 97.0483 125.626 119.122 121.364C124.341 120.357 129.312 124.313 129.312 129.736V131.496H132.5C137.194 131.496 141 135.301 141 139.996V146.489C141 151.184 137.194 154.989 132.5 154.989H129.312V158.723C129.312 162.567 126.718 165.971 122.947 166.93C110.817 170.016 100.742 171.608 90.4336 171.604C80.1329 171.601 69.794 170.004 57.1383 166.916C53.329 165.986 50.6872 162.566 50.6872 158.685V154.989H47.4997C42.8052 154.989 38.9998 151.184 38.9998 146.489V139.996C38.9998 135.301 42.8052 131.496 47.4997 131.496H50.6872V129.723ZM59.1872 129.723C59.1872 129.723 59.1872 129.724 59.1872 129.723V131.496C59.1872 136.19 55.3818 139.996 50.6872 139.996H47.4997V146.489H50.6872C55.3818 146.489 59.1872 150.295 59.1872 154.989V158.667C71.451 161.657 81.062 163.101 90.4366 163.104C99.8006 163.108 109.125 161.673 120.812 158.702V154.989C120.812 150.295 124.618 146.489 129.312 146.489H132.5V139.996H129.312C124.618 139.996 120.812 136.19 120.812 131.496V129.736C120.812 129.737 120.812 129.736 120.812 129.736C120.81 129.734 120.807 129.73 120.803 129.727C120.791 129.717 120.778 129.711 120.77 129.709L120.76 129.708C120.757 129.708 120.749 129.708 120.734 129.71C97.5809 134.181 82.3931 134.125 59.2616 129.698C59.2467 129.696 59.2391 129.696 59.2361 129.696L59.2272 129.697C59.22 129.699 59.2076 129.704 59.1957 129.714C59.1919 129.717 59.1894 129.721 59.1872 129.723Z" fill="#0BAB7C"/>
<path fill-rule="evenodd" clip-rule="evenodd" d="M68.7495 137.25C71.0968 137.25 72.9995 139.153 72.9995 141.5V150C72.9995 152.347 71.0968 154.25 68.7495 154.25C66.4022 154.25 64.4995 152.347 64.4995 150V141.5C64.4995 139.153 66.4022 137.25 68.7495 137.25Z" fill="#0BAB7C"/>
</g>
<defs>
<clipPath id="clip0_59_3249">
<rect width="180" height="180" fill="white"/>
</clipPath>
</defs>
</svg>
