<svg width="180" height="180" viewBox="0 0 180 180" fill="none" xmlns="http://www.w3.org/2000/svg">
<path d="M97.9658 11.4604L97.9658 37.2098C97.9658 44.3098 101.13 51.0404 106.597 55.5703L118.829 65.7056" stroke="#0BAB7C" stroke-width="8.46417" stroke-linecap="square"/>
<path d="M80.9985 12.0552L80.9985 37.8045C80.9985 44.9045 77.8345 51.6351 72.3674 56.165L60.135 66.3004" stroke="#0BAB7C" stroke-width="8.46417" stroke-linecap="square"/>
<path d="M108.695 77.6278L101.663 70.3689C95.3146 63.8157 84.8802 63.5749 78.236 69.8283L69.9488 77.6281" stroke="#0BAB7C" stroke-width="8.46417" stroke-linecap="square"/>
<path d="M55.6416 84.7801L53.6831 86.7387C49.2118 91.2103 46.6998 97.275 46.6998 103.599L46.6998 118.754C46.6998 123.794 45.1033 128.703 42.1394 132.779L37.1623 139.622" stroke="#0BAB7C" stroke-width="6.55712" stroke-linecap="round"/>
<path d="M44.912 103.261L40.0596 102.543C35.5515 101.876 31.166 104.355 29.4132 108.562V108.562" stroke="#0BAB7C" stroke-width="6.55712" stroke-linecap="round"/>
<path d="M37.1627 102.068V102.068C35.2583 99.0209 34.6748 95.3301 35.5464 91.8439L35.9708 90.1462" stroke="#0BAB7C" stroke-width="6.55712" stroke-linecap="round"/>
<path d="M43.1231 128.339L36.8927 128.34C32.3954 128.34 27.9898 129.612 24.1845 132.009L23.4519 132.47" stroke="#0BAB7C" stroke-width="6.55712" stroke-linecap="round"/>
<path d="M32.9904 127.7L32.6575 127.3C30.9002 125.192 28.8706 123.326 26.6218 121.751L24.0488 119.95" stroke="#0BAB7C" stroke-width="6.55712" stroke-linecap="round"/>
<path d="M46.6988 111.605L49.4706 114.775C53.7448 119.663 60.9894 120.604 66.3705 116.97V116.97" stroke="#0BAB7C" stroke-width="6.55712" stroke-linecap="round"/>
<path d="M58.5317 121.739V121.739C58.1456 123.955 58.0553 126.213 58.2631 128.453L58.4398 130.358" stroke="#0BAB7C" stroke-width="6.55712" stroke-linecap="round"/>
<path d="M52.0646 91.6378L54.5352 94.8069C57.4779 98.5817 62.8555 99.1717 66.8362 96.1566V96.1566" stroke="#0BAB7C" stroke-width="6.55712" stroke-linecap="round"/>
<path d="M59.8992 100.28V100.28C59.8251 101.788 59.913 103.293 60.161 104.764L60.4102 106.241" stroke="#0BAB7C" stroke-width="6.55712" stroke-linecap="round"/>
<path d="M70.9067 51.5573V51.5573C70.9067 51.5573 59.3732 45.326 53.8295 48.6082C21.9752 67.4673 -6.76151 148.996 21.2135 167.793C26.7449 171.51 33.8882 168.925 39.1375 164.82C59.5223 148.876 66.6538 146.359 75.6756 132.03C86.1613 110.467 79.8478 70.6333 79.8478 70.6333" stroke="#0BAB7C" stroke-width="8.46417" stroke-linecap="round"/>
<path d="M123.391 84.7801L125.35 86.7387C129.821 91.2103 132.333 97.275 132.333 103.599L132.333 118.754C132.333 123.794 133.929 128.703 136.893 132.779L141.87 139.622" stroke="#0BAB7C" stroke-width="6.55712" stroke-linecap="round"/>
<path d="M134.121 103.261L138.973 102.543C143.481 101.876 147.867 104.355 149.619 108.562V108.562" stroke="#0BAB7C" stroke-width="6.55712" stroke-linecap="round"/>
<path d="M141.87 102.068V102.068C143.774 99.0209 144.358 95.3301 143.486 91.8439L143.062 90.1462" stroke="#0BAB7C" stroke-width="6.55712" stroke-linecap="round"/>
<path d="M135.909 128.339L142.139 128.339C146.636 128.339 151.042 129.611 154.847 132.008L155.58 132.47" stroke="#0BAB7C" stroke-width="6.55712" stroke-linecap="round"/>
<path d="M146.043 127.7L146.376 127.3C148.133 125.192 150.163 123.326 152.411 121.751L154.984 119.95" stroke="#0BAB7C" stroke-width="6.55712" stroke-linecap="round"/>
<path d="M132.332 111.606L129.561 114.776C125.286 119.663 118.042 120.604 112.661 116.971V116.971" stroke="#0BAB7C" stroke-width="6.55712" stroke-linecap="round"/>
<path d="M120.5 121.739V121.739C120.886 123.955 120.976 126.213 120.768 128.453L120.591 130.358" stroke="#0BAB7C" stroke-width="6.55712" stroke-linecap="round"/>
<path d="M126.969 91.6383L124.498 94.8074C121.555 98.5822 116.178 99.1722 112.197 96.1571V96.1571" stroke="#0BAB7C" stroke-width="6.55712" stroke-linecap="round"/>
<path d="M119.132 100.28V100.28C119.206 101.788 119.118 103.293 118.87 104.764L118.621 106.241" stroke="#0BAB7C" stroke-width="6.55712" stroke-linecap="round"/>
<path d="M108.127 51.5573V51.5573C108.127 51.5573 119.66 45.326 125.204 48.6082C157.058 67.4673 185.795 148.996 157.82 167.793C152.288 171.51 145.145 168.925 139.896 164.82C119.511 148.876 112.379 146.359 103.358 132.03C92.8719 110.467 99.1854 70.6333 99.1854 70.6333" stroke="#0BAB7C" stroke-width="8.46417" stroke-linecap="round"/>
</svg>
